<?xml version="1.0" standalone="no"?>
<!DOCTYPE svg PUBLIC "-//W3C//DTD SVG 20010904//EN"
 "http://www.w3.org/TR/2001/REC-SVG-20010904/DTD/svg10.dtd">
<svg version="1.0" xmlns="http://www.w3.org/2000/svg"
 width="480.000000pt" height="480.000000pt" viewBox="0 0 480.000000 480.000000"
 preserveAspectRatio="xMidYMid meet">
<metadata>
Created by potrace 1.11, written by Peter Selinger 2001-2013
</metadata>
<g transform="translate(0.000000,480.000000) scale(0.100000,-0.100000)"
fill="#000000" stroke="none">
<path d="M3237 4674 c-1 -1 -47 -5 -102 -9 -148 -11 -165 -12 -230 -19 -56 -6
-85 -8 -260 -21 -38 -3 -86 -8 -105 -10 -19 -2 -73 -7 -120 -10 -47 -3 -101
-8 -120 -10 -19 -2 -73 -7 -120 -10 -47 -4 -101 -8 -120 -10 -19 -2 -73 -7
-120 -10 -47 -4 -101 -8 -120 -10 -19 -2 -69 -6 -110 -9 -41 -4 -97 -9 -125
-11 -27 -3 -90 -7 -140 -10 -116 -7 -194 -21 -277 -50 -145 -51 -264 -134
-332 -233 -140 -205 -514 -739 -642 -917 -92 -127 -140 -216 -165 -302 -22
-75 -30 -188 -19 -261 9 -59 19 -140 26 -212 3 -30 7 -66 9 -80 2 -14 7 -54
10 -90 4 -36 9 -72 10 -80 2 -8 6 -44 10 -80 3 -36 8 -76 10 -90 2 -14 6 -50
10 -80 3 -30 9 -73 12 -95 3 -22 6 -53 8 -70 8 -84 16 -174 20 -210 14 -152
94 -311 251 -505 29 -36 61 -72 71 -81 10 -9 142 -143 293 -299 521 -537 510
-526 638 -592 54 -27 152 -62 207 -72 17 -4 41 -9 55 -11 26 -6 237 -6 330 0
30 2 125 6 210 9 85 4 191 9 235 11 118 6 294 14 430 20 311 13 396 19 437 31
9 3 25 7 36 9 73 14 270 115 322 166 15 14 105 90 191 160 24 20 101 83 170
140 69 57 196 162 283 233 155 128 227 207 283 311 23 44 75 185 68 185 -2 0
0 11 5 24 5 13 12 62 15 108 3 45 8 106 10 133 3 28 7 77 10 110 6 72 13 142
20 210 2 28 7 79 10 115 2 36 7 83 9 105 5 46 14 134 21 220 12 140 14 162 19
200 3 22 8 78 11 125 4 47 10 117 14 155 11 104 5 206 -18 289 -40 145 -91
237 -201 361 -34 39 -100 116 -145 171 -46 56 -92 113 -103 125 -21 25 -121
146 -177 214 -335 407 -370 443 -496 514 -80 44 -186 80 -294 97 -37 5 -115
11 -118 8z m-1390 -1215 l2 -336 -97 -22 c-53 -12 -106 -23 -117 -25 -46 -9
-465 -97 -517 -110 -41 -10 -58 -10 -61 -2 -3 10 -1 813 2 826 0 3 178 5 394
5 l392 0 2 -336z m1038 329 c5 -5 10 -2736 5 -2968 0 -13 -54 -15 -432 -14
-238 1 -438 2 -444 3 -8 1 -10 428 -9 1493 1 821 2 1493 3 1493 70 4 873 -2
877 -7z m949 -8 c2 -8 3 -197 3 -420 -2 -354 -4 -405 -17 -402 -8 2 -26 6 -40
9 -14 2 -117 25 -230 49 -113 25 -214 47 -225 50 -129 26 -259 55 -266 60 -9
5 -13 656 -5 665 2 2 178 4 390 4 336 0 387 -2 390 -15z"/>
</g>
</svg>
